<svg version="1.1" xmlns="http://www.w3.org/2000/svg" xmlns:xlink="http://www.w3.org/1999/xlink" preserveAspectRatio="xMidYMid meet" viewBox="881 448 346 87"><g data-item-type="text" data-item="Business" id="logo__item--business" class="logo__item">
                <g class="logo__item__inner" transform="translate(970 503.5) scale(1.4096236890808143 1.4096236890808143) rotate(0 0 0)">
                    <text data-part-id="logo__item--business" dy="0" dominant-baseline="auto" alignment-baseline="auto" font-family="Montserrat" font-size="32px" fill="#FFFFFF" letter-spacing="0" font-weight="bold" font-style="normal" data-font-family="Montserrat" data-font-weight="bold" data-font-style="normal" data-ttf-url="/builder_assets/fontsttf/font-montserrat-bold-normal.ttf" data-font-filename="montserrat-bold-normal">ppFounder</text>
                </g>
            </g><g data-item-type="text" data-item="Tagline" id="logo__item--tagline_1" class="logo__item" data-item-clone="true">
                <g class="logo__item__inner" transform="translate(908 506.5) scale(1.4096236890808143 1.4096236890808143) rotate(0 0 0)">
                    <text data-part-id="logo__item--tagline_1__0" dy="0" dominant-baseline="auto" alignment-baseline="auto" font-family="Montserrat" font-size="32px" fill="#fdfdfd" letter-spacing="0" font-weight="bold" font-style="normal" data-font-family="Montserrat" data-font-weight="bold" data-font-style="normal" data-ttf-url="/builder_assets/fontsttf/font-montserrat-bold-normal.ttf" data-font-filename="montserrat-bold-normal">A</text>
                </g>
            </g><g data-item-type="shape" data-item="Shape" data-logo-item="" id="logo__item--shape_1" class="logo__item">
    <g class="logo__item__inner" transform="translate(882.3500022888184 440.85000228881836) scale(1 1) rotate(0 0 0)">
        
<g>
	<g>
		<linearGradient id="logo__item--shape_1__0" gradientUnits="objectBoundingBox" x1="0.5" y1="0" x2="0.5" y2="1"><stop offset="0" style="stop-color:#333333"></stop><stop offset="1" style="stop-color:#999999"></stop></linearGradient><path fill="#FFFFFF" d="M59.2,91.7H26.8c-13.5,0-24.4-10.9-24.4-24.4V34.8c0-13.5,10.9-24.4,24.4-24.4h32.5    c13.5,0,24.4,10.9,24.4,24.4v32.5C83.7,80.7,72.7,91.7,59.2,91.7z M26.8,20.1c-8.1,0-14.7,6.6-14.7,14.7v32.5    c0,8.1,6.6,14.7,14.7,14.7h32.5c8.1,0,14.7-6.6,14.7-14.7V34.8c0-8.1-6.6-14.7-14.7-14.7H26.8z" data-part-id="logo__item--shape_1__0"></path>
	</g>
</g>

    </g>
</g></svg>